<svg xmlns="http://www.w3.org/2000/svg" viewBox="0 0 32 32">
  <path fill="#FFCA28" d="M5.18 25.13l2.45-16.12c.08-.55.48-1.02 1.05-1.12.57-.1 1.15.15 1.4.67l3.12 6.07 1.4-2.67c-.23-.42-.25-.92-.05-1.35s.62-.73 1.1-.78c.48-.05.95.12 1.28.47l8.2 8.75c.42.45.52 1.1.25 1.63L20.8 28.1c-.28.53-.87.85-1.47.8H6.62c-.62.05-1.22-.27-1.5-.82-.28-.55-.25-1.2.06-1.72l.48-.67c-.15-.15-.3-.32-.48-.56z"/>
  <path fill="#FFA000" d="M5.18 25.13l.48-.67L15.3 12.02l3.42 6.55 1.25-2.38-5.32-5.65c-.33-.35-.8-.52-1.28-.47-.48.05-.9.35-1.1.78l-1.4 2.67-2.65-5.18c-.25-.52-.83-.77-1.4-.67-.57.1-.97.57-1.05 1.12l-2.45 16.12c-.06.37.03.75.22 1.07.15.24.35.41.56.56z"/>
  <path fill="#DD2C00" d="M25.37 25.42L17.17 16.67l-1.87 3.58 10.07 7.85c.27-.53.17-1.18-.25-1.63l.25-.05z"/>
</svg>
